G04 Layer_Physical_Order=1*
G04 Layer_Color=255*
%FSLAX25Y25*%
%MOIN*%
G70*
G01*
G75*
%ADD10R,0.07874X0.09843*%
%ADD11C,0.03937*%
%ADD12C,0.01000*%
%ADD13C,0.19685*%
%ADD14R,0.07874X0.07874*%
%ADD15C,0.07874*%
D10*
X116142Y-55118D02*
D03*
X98425D02*
D03*
Y-19685D02*
D03*
X116142D02*
D03*
X179134Y-55118D02*
D03*
X161417D02*
D03*
Y-19685D02*
D03*
X179134D02*
D03*
X242126Y-55118D02*
D03*
X224410D02*
D03*
Y-19685D02*
D03*
X242126D02*
D03*
X305118Y-55118D02*
D03*
X287402D02*
D03*
Y-19685D02*
D03*
X305118D02*
D03*
D11*
X49213Y-64961D02*
Y-49370D01*
Y-64961D02*
X66929Y-82677D01*
X240158D01*
X267717Y-55118D01*
X287402D01*
X305118D01*
X59212Y-49370D02*
X65118D01*
X70866Y-55118D01*
Y-66929D02*
Y-55118D01*
Y-66929D02*
X78740Y-74803D01*
X185039D01*
X204724Y-55118D01*
X224410D01*
X242126D01*
X59212Y-39370D02*
X70866D01*
X78740Y-47244D01*
Y-59055D02*
Y-47244D01*
Y-59055D02*
X86614Y-66929D01*
X129921D01*
X141732Y-55118D01*
X161417D01*
X179134D01*
X59212Y-29369D02*
X80550D01*
X86614Y-35433D01*
Y-51181D02*
Y-35433D01*
Y-51181D02*
X90551Y-55118D01*
X98425D01*
X116142D01*
X287402Y-19685D02*
X305118D01*
X242126D02*
X287402D01*
X224410D02*
X242126D01*
X179134D02*
X224410D01*
X161417D02*
X179134D01*
X116142D02*
X161417D01*
X98425D02*
X116142D01*
X43307D02*
X98425D01*
X43307Y-39370D02*
X49213D01*
X39370Y-35433D02*
X43307Y-39370D01*
X39370Y-35433D02*
Y-23622D01*
X43307Y-19685D01*
D12*
X0Y-98425D02*
Y-3937D01*
Y0D01*
X2000D02*
X378937D01*
X0D02*
X2000D01*
X0Y-98425D02*
X378937D01*
Y-2953D01*
Y0D01*
D13*
X359252Y-53150D02*
D03*
X19685D02*
D03*
D14*
X59212Y-29369D02*
D03*
D15*
X59212Y-39370D02*
D03*
Y-49370D02*
D03*
X49213Y-49370D02*
D03*
Y-39370D02*
D03*
X49212Y-29370D02*
D03*
M02*
