G04 Layer_Physical_Order=1*
G04 Layer_Color=255*
%FSLAX25Y25*%
%MOIN*%
G70*
G01*
G75*
%ADD10R,0.06693X0.04528*%
%ADD11R,0.09843X0.07874*%
%ADD12C,0.03937*%
%ADD13C,0.01000*%
%ADD14C,0.07874*%
%ADD15R,0.07874X0.07874*%
%ADD16C,0.19685*%
D10*
X245079Y-10236D02*
D03*
Y-21260D02*
D03*
X196850Y-10236D02*
D03*
Y-21260D02*
D03*
X126969Y-10236D02*
D03*
Y-21260D02*
D03*
X63976Y-4331D02*
D03*
Y-15354D02*
D03*
D11*
X291339Y0D02*
D03*
Y17717D02*
D03*
X255906D02*
D03*
Y0D02*
D03*
X232283D02*
D03*
Y17717D02*
D03*
X196850D02*
D03*
Y0D02*
D03*
X173228D02*
D03*
Y17717D02*
D03*
X137795D02*
D03*
Y0D02*
D03*
X114173D02*
D03*
Y17717D02*
D03*
X78740D02*
D03*
Y0D02*
D03*
D12*
X56102Y-9843D02*
X127953D01*
X216535Y-15748D02*
X251969D01*
X211024Y-10236D02*
X216535Y-15748D01*
X196850Y-10236D02*
X211024D01*
X196850D02*
Y0D01*
Y-21260D02*
X245079D01*
X126969D02*
X196850D01*
X31496Y-36417D02*
X274606D01*
X291339Y-19685D01*
Y0D01*
X245079Y-10236D02*
X245669D01*
X24114Y-492D02*
X30020D01*
X19685Y-4921D02*
X24114Y-492D01*
X19685Y-24606D02*
Y-4921D01*
Y-24606D02*
X31496Y-36417D01*
X46752Y-492D02*
X56102Y-9843D01*
X39370Y-29528D02*
X252953D01*
X63976Y-21260D02*
X126969D01*
X50787D02*
X63976D01*
X40019Y-10492D02*
X50787Y-21260D01*
X127953Y-9843D02*
X137795Y0D01*
X30020Y-20177D02*
Y-10492D01*
Y-20177D02*
X39370Y-29528D01*
X252953D02*
X256890Y-25591D01*
Y-20669D01*
X251969Y-15748D02*
X256890Y-20669D01*
X63976Y-21260D02*
Y-15354D01*
X245669Y-10236D02*
X255906Y0D01*
X78740D02*
X114173D01*
X255906D02*
X291339D01*
X196850D02*
X232283D01*
X137795D02*
X173228D01*
X30019Y9508D02*
Y17717D01*
X78740D01*
X232283D02*
X255906D01*
X196850D02*
X232283D01*
X173228D02*
X196850D01*
X137795D02*
X173228D01*
X114173D02*
X137795D01*
X78740D02*
X114173D01*
X255906D02*
X291339D01*
X40019Y-492D02*
X46752D01*
X63976Y0D02*
X78740D01*
X60039D02*
X63976D01*
Y-4331D02*
Y0D01*
X40019Y9509D02*
X50531D01*
X60039Y0D01*
D13*
X-19685Y31273D02*
X-9567D01*
X-19685Y23399D02*
Y31273D01*
Y-47244D02*
Y23399D01*
Y-47244D02*
X334646D01*
Y23622D01*
Y31755D01*
X-9567Y31273D02*
X334646Y31755D01*
D14*
X30019Y9508D02*
D03*
X30020Y-492D02*
D03*
Y-10492D02*
D03*
X40019Y-10492D02*
D03*
Y-492D02*
D03*
D15*
X40019Y9509D02*
D03*
D16*
X0Y-19685D02*
D03*
X314961D02*
D03*
M02*
