M48
;Layer_Color=9474304
;FILE_FORMAT=2:5
INCH,LZ
;TYPE=NON_PLATED
T1F00S00C0.01968
T2F00S00C0.03937
T3F00S00C0.09843
%
T01
X0238189Y-0051181
X0246063
X0273622
X0281496
T02
X0379921Y-0144764
X0379921Y-0134764
X0220866Y-0141733
X0210866
X0200866
X0190866
X0180866
X0170866
X0160866
X0150866
X0140866
X0130866
X0120866
X0110866
X0100866
X0090866
X0080866
X0070866
X0019685Y-0141732
X0029528Y-0122047
X0009843
X0019488Y-008246
X0019488Y-0072461
X0017323Y-0023504
X0017323Y-0013504
X0086614Y-003937
X0129921Y-0059055
X0139921
X0086614Y-0114173
X0153779Y-004378
X0163779
Y-001378
X0153779
X0374921Y-0019685
X0384921Y-0019685
X038189Y-0041181
X038189Y-0051181
X038189Y-0061181
Y-0071181
X0384016Y-0090394
X0374016Y-0090393
X0374016Y-0100394
Y-0110394
X0384015Y-0110394
Y-0100394
T03
X0344488Y-0139764
X0049213Y-013937
Y-0017717
X0344094Y-0018111
M30
