G04 Layer_Physical_Order=1*
G04 Layer_Color=255*
%FSLAX25Y25*%
%MOIN*%
G70*
G01*
G75*
%ADD10C,0.01575*%
%ADD11R,0.06890X0.07087*%
%ADD12R,0.05315X0.01575*%
%ADD13R,0.06693X0.04528*%
%ADD14R,0.04528X0.06693*%
%ADD15R,0.02362X0.03937*%
%ADD16R,0.07087X0.06890*%
%ADD17R,0.12795X0.08465*%
%ADD18R,0.03937X0.08465*%
%ADD19R,0.01772X0.03347*%
%ADD20R,0.08858X0.07677*%
%ADD21R,0.03347X0.01772*%
%ADD22C,0.03937*%
%ADD23C,0.02559*%
%ADD24C,0.02756*%
%ADD25C,0.03937*%
%ADD26R,0.03937X0.03937*%
%ADD27R,0.07874X0.07874*%
%ADD28C,0.07874*%
%ADD29R,0.07874X0.07874*%
%ADD30C,0.19685*%
D10*
X147655Y-125886D02*
G03*
X148300Y-125241I0J645D01*
G01*
X142421Y-124705D02*
G03*
X143602Y-125886I1181J0D01*
G01*
X143602Y-121555D02*
G03*
X145177Y-123130I1575J0D01*
G01*
X145571D02*
G03*
X147539Y-121161I0J1969D01*
G01*
Y-121161D02*
G03*
X145571Y-119193I-1969J0D01*
G01*
D02*
G03*
X143602Y-121161I0J-1969D01*
G01*
X137697D02*
G03*
X145571Y-129035I7874J0D01*
G01*
X145571D02*
G03*
X153445Y-121161I0J7874D01*
G01*
Y-121161D02*
G03*
X145571Y-113287I-7874J0D01*
G01*
D02*
G03*
X137697Y-121161I0J-7874D01*
G01*
X245276Y-140945D02*
X246063Y-141732D01*
X226969Y-148228D02*
X234252Y-140945D01*
X170866Y-141733D02*
Y-115354D01*
X148721Y-117618D02*
Y-117224D01*
X142421Y-117618D02*
Y-117224D01*
X143602Y-125886D02*
X147655D01*
X145177Y-123130D02*
X145571D01*
X147539Y-121161D02*
Y-121161D01*
X140488Y-112141D02*
X142126Y-114075D01*
X137697Y-109350D02*
X140488Y-112141D01*
X137697Y-121161D02*
Y-109350D01*
X149311Y-114173D02*
X150733Y-112220D01*
X153445Y-109350D01*
Y-121161D02*
Y-109350D01*
X145571Y-129035D02*
X145571D01*
X153445Y-121161D02*
Y-121161D01*
X133563Y-94193D02*
X138287D01*
X170177Y-91634D02*
X190866Y-112322D01*
X173130Y-89075D02*
X200866Y-116811D01*
X180866Y-141733D02*
Y-109803D01*
X190866Y-141733D02*
Y-112322D01*
X200866Y-141733D02*
Y-116811D01*
X160866Y-144035D02*
X165059Y-148228D01*
X160866Y-144035D02*
Y-141733D01*
X110866Y-133130D02*
X111024Y-132973D01*
X90866Y-125197D02*
X92815D01*
X86614Y-118405D02*
Y-114173D01*
X131398Y-89075D02*
X138287D01*
X127657Y-92815D02*
X131398Y-89075D01*
X127657Y-94488D02*
Y-92815D01*
X122146Y-86516D02*
X138287D01*
X116437Y-92224D02*
X122146Y-86516D01*
X116437Y-94488D02*
Y-92224D01*
X131004Y-73721D02*
X138287D01*
X129921Y-72638D02*
X131004Y-73721D01*
X129921Y-72638D02*
Y-59055D01*
X134153Y-71161D02*
X138287D01*
X133858Y-70866D02*
X134153Y-71161D01*
X133858Y-70866D02*
Y-66929D01*
X139921Y-60866D01*
Y-59055D01*
X340158D02*
X352362D01*
X366142Y-72835D01*
Y-88583D02*
Y-72835D01*
Y-88583D02*
X368110Y-90551D01*
X373858D01*
X374016Y-90393D01*
X340158Y-70866D02*
X358268D01*
X362205Y-74803D01*
Y-94488D02*
Y-74803D01*
Y-94488D02*
X368110Y-100394D01*
X374016D01*
X340158Y-82677D02*
X354331D01*
X358268Y-86614D01*
Y-102362D02*
Y-86614D01*
Y-102362D02*
X366299Y-110394D01*
X374016D01*
X340158Y-94488D02*
X344488D01*
X368110Y-118110D01*
X381890D01*
X384015Y-115985D01*
Y-110394D01*
X160925Y-71161D02*
X178839D01*
X160925Y-73721D02*
X179899D01*
X160925Y-76279D02*
X180959D01*
X185274Y-71964D01*
X179899Y-73721D02*
X184017Y-69602D01*
X178839Y-71161D02*
X182760Y-67240D01*
X328569Y-82112D02*
X329134Y-82677D01*
X322835Y-59055D02*
X329134D01*
X324803Y-82677D02*
X329134D01*
X318898Y-74803D02*
X322835Y-70866D01*
X329134D01*
X322835Y-84646D02*
X324803Y-82677D01*
X311024Y-70866D02*
X322835Y-59055D01*
X247555Y-100871D02*
X298736D01*
X403228Y-71181D02*
X403543Y-70866D01*
X9843Y-122047D02*
X39370Y-151575D01*
X74803D01*
X80866Y-145512D01*
Y-141733D01*
X19685Y-141732D02*
X32579Y-154626D01*
X78937D01*
X90866Y-142697D01*
Y-141733D01*
X118504Y-59153D02*
X129823D01*
X129921Y-59055D01*
X98425Y-59449D02*
X98721Y-59153D01*
X139921Y-59055D02*
Y-52618D01*
X135531Y-48228D02*
X139921Y-52618D01*
X118602Y-48228D02*
X135531D01*
X107283Y-59153D02*
X107382Y-59055D01*
X29528Y-122047D02*
X30020Y-121555D01*
X112992Y-69685D02*
Y-43701D01*
Y-69685D02*
X124705Y-81398D01*
X138287D01*
X139764Y-40157D02*
X144095D01*
X116535D02*
X128740D01*
X112992Y-43701D02*
X116535Y-40157D01*
X138287Y-94193D02*
X149705D01*
X170866Y-115354D01*
X160925Y-94193D02*
X165256D01*
X180866Y-109803D01*
X160925Y-91634D02*
X170177D01*
X160925Y-89075D02*
X173130D01*
X230315Y-119882D02*
X230512Y-120079D01*
X165059Y-148228D02*
X226969D01*
X160925Y-86516D02*
X164370D01*
X164469Y-86614D01*
X176378D01*
X160925Y-83957D02*
X164370D01*
X164469Y-84055D01*
X177438D01*
X207283Y-113901D01*
X217323Y-126181D02*
X217520Y-125984D01*
X228740D01*
X238189Y-135433D01*
X229997Y-123622D02*
X240551Y-134176D01*
X100866Y-149586D02*
X104232Y-152953D01*
X234842D01*
X100866Y-149586D02*
Y-141733D01*
X240846Y-146949D02*
Y-136755D01*
X234842Y-152953D02*
X240846Y-146949D01*
X120866Y-146850D02*
X124606Y-150591D01*
X233864D01*
X120866Y-146850D02*
Y-141733D01*
X238484Y-145970D02*
Y-137733D01*
X233864Y-150591D02*
X238484Y-145970D01*
X238189Y-137438D02*
Y-135433D01*
Y-137438D02*
X238484Y-137733D01*
X240551Y-136460D02*
Y-134176D01*
Y-136460D02*
X240846Y-136755D01*
X225984Y-117126D02*
Y-107911D01*
X223031Y-120079D02*
X225984Y-117126D01*
X230512Y-120079D02*
Y-117089D01*
X228445Y-115022D02*
X230512Y-117089D01*
X232283Y-112205D02*
Y-111024D01*
X182760Y-67240D02*
X213924D01*
X184017Y-69602D02*
X212667D01*
X185274Y-71964D02*
X211410D01*
X213924Y-67240D02*
X247555Y-100871D01*
X224176Y-106102D02*
X225984Y-107911D01*
X218344Y-106102D02*
X224176D01*
X228445Y-115022D02*
Y-107031D01*
X225154Y-103740D02*
X228445Y-107031D01*
X223031Y-103740D02*
X225154D01*
X220472Y-101181D02*
X223031Y-103740D01*
X209885Y-126181D02*
X217323D01*
X210667Y-123622D02*
X229997D01*
X204724Y-121020D02*
X209885Y-126181D01*
X207283Y-120239D02*
X210667Y-123622D01*
X176378Y-86614D02*
X204724Y-114961D01*
Y-121020D02*
Y-114961D01*
X207283Y-120239D02*
Y-113901D01*
X161122Y-81595D02*
X181988D01*
X160925Y-81398D02*
X161122Y-81595D01*
X214961Y-102719D02*
X218344Y-106102D01*
X214961Y-102719D02*
Y-98425D01*
X86614Y-39370D02*
X87008Y-39764D01*
X29921Y-89075D02*
X30020Y-89173D01*
X181988Y-81595D02*
X190157Y-89764D01*
X195276D01*
X195669Y-89370D01*
X220472Y-101181D02*
Y-90158D01*
X211024Y-80709D02*
X220472Y-90158D01*
X207874Y-80709D02*
X211024D01*
X260236Y-125197D02*
X260630Y-125591D01*
X46457Y-66831D02*
X46654Y-67028D01*
X163779Y-13780D02*
Y-10630D01*
Y-43780D02*
Y-41437D01*
X159252Y-36909D02*
X163779Y-41437D01*
X147343Y-36909D02*
X159252D01*
X144095Y-40157D02*
X147343Y-36909D01*
X93701Y-39764D02*
X93799Y-39862D01*
Y-50394D02*
X93996Y-50590D01*
X246063Y-51181D02*
X246654D01*
X154331Y-67913D02*
X156595Y-65650D01*
X151969Y-80512D02*
Y-66935D01*
X155616Y-63287D01*
X148228Y-67335D02*
X156016Y-59547D01*
X145669Y-67913D02*
X145866Y-67716D01*
Y-66356D01*
X155234Y-56988D01*
X176181D01*
X156016Y-59547D02*
X177241D01*
X155616Y-63287D02*
X178790D01*
X156595Y-65650D02*
X179769D01*
X182798Y-62621D01*
X318898Y-90551D02*
Y-74803D01*
X322835Y-92520D02*
Y-84646D01*
X211410Y-71964D02*
X245041Y-105595D01*
X212667Y-69602D02*
X246298Y-103233D01*
X311024Y-88583D02*
Y-70866D01*
X245041Y-105595D02*
X309759D01*
X322835Y-92520D01*
X246298Y-103233D02*
X306216D01*
X318898Y-90551D01*
X298736Y-100871D02*
X311024Y-88583D01*
X182798Y-62621D02*
X214688D01*
X242815Y-90748D01*
X178790Y-63287D02*
X181819Y-60258D01*
X215666D01*
X242219Y-86811D01*
X177241Y-59547D02*
X178892Y-57896D01*
X218593D01*
X176181Y-56988D02*
X177635Y-55534D01*
X219850D01*
X244199Y-79883D01*
X133661Y-91634D02*
X138287D01*
X148228D01*
X154331Y-85532D01*
Y-67913D01*
X297244Y-86614D02*
X300787Y-83071D01*
X281496Y-86614D02*
X297244D01*
X300787Y-61417D02*
X314961Y-47244D01*
X300787Y-83071D02*
Y-61417D01*
X374921Y-134764D02*
X379921D01*
X346457Y-106299D02*
X374921Y-134764D01*
X335925Y-102067D02*
Y-51279D01*
X314961Y-47244D02*
X331890D01*
X335925Y-51279D01*
X340158Y-106299D02*
X346457D01*
X335925Y-102067D02*
X340158Y-106299D01*
X138287Y-83957D02*
X148524D01*
X131988D02*
X138287D01*
X148524D02*
X151969Y-80512D01*
X299606Y-92126D02*
X303150Y-88583D01*
X329134Y-94488D02*
X333366Y-90256D01*
Y-53839D01*
X303150Y-88583D02*
Y-62992D01*
X314961Y-51181D01*
X330709D02*
X333366Y-53839D01*
X314961Y-51181D02*
X330709D01*
X138287Y-78839D02*
X142514D01*
X132087D02*
X138287D01*
X131988Y-78740D02*
X132087Y-78839D01*
X142514D02*
X148228Y-73124D01*
X242943Y-82246D02*
X269799D01*
X277241Y-74803D01*
X292989D01*
X297835Y-69958D01*
X381732Y-61024D02*
X381890Y-61181D01*
X297835Y-69958D02*
Y-58465D01*
X336614Y-43307D02*
X348425Y-55118D01*
X297835Y-58465D02*
X312992Y-43307D01*
X336614D01*
X360554Y-61024D02*
X381732D01*
X348425Y-55118D02*
X354649D01*
X360554Y-61024D01*
X138287Y-76279D02*
X141732D01*
X131988D02*
X138287D01*
X141732D02*
X145669Y-72342D01*
X244199Y-79883D02*
X268542D01*
X276181Y-72244D01*
X291929D01*
X295276Y-68898D01*
Y-57405D01*
X311932Y-40748D01*
X341929D02*
X352362Y-51181D01*
X311932Y-40748D02*
X341929D01*
X352362Y-51181D02*
X381890D01*
X381890Y-51181D01*
X148228Y-73124D02*
Y-67335D01*
X145669Y-72342D02*
Y-67913D01*
X218593Y-57896D02*
X242943Y-82246D01*
X242815Y-90748D02*
X277362D01*
X281496Y-86614D01*
X242219Y-86811D02*
X273819D01*
X279331Y-81299D01*
X291142D01*
X291339Y-81102D01*
Y-92126D02*
X299606D01*
X106595Y-94685D02*
X106791Y-94488D01*
X106595Y-59842D02*
X107283Y-59153D01*
X34941Y-89567D02*
X35433Y-89075D01*
X30020Y-89567D02*
X34941D01*
X384015Y-100394D02*
X385039D01*
X281201Y-20866D02*
X281496Y-21161D01*
D11*
X118504Y-59153D02*
D03*
X107283D02*
D03*
X118602Y-48228D02*
D03*
X107382D02*
D03*
X92815Y-125197D02*
D03*
X104035D02*
D03*
X127657Y-94488D02*
D03*
X116437D02*
D03*
D12*
X138287Y-71161D02*
D03*
Y-73721D02*
D03*
Y-76279D02*
D03*
Y-78839D02*
D03*
Y-81398D02*
D03*
Y-83957D02*
D03*
Y-86516D02*
D03*
Y-89075D02*
D03*
Y-91634D02*
D03*
Y-94193D02*
D03*
X160925Y-71161D02*
D03*
Y-73721D02*
D03*
Y-76279D02*
D03*
Y-78839D02*
D03*
Y-81398D02*
D03*
Y-83957D02*
D03*
Y-86516D02*
D03*
Y-89075D02*
D03*
Y-91634D02*
D03*
Y-94193D02*
D03*
D13*
X395669Y-65354D02*
D03*
Y-76378D02*
D03*
X267717Y-147244D02*
D03*
Y-136221D02*
D03*
X106595Y-111122D02*
D03*
Y-100098D02*
D03*
X207874Y-91732D02*
D03*
Y-80709D02*
D03*
X214173Y-130315D02*
D03*
Y-119291D02*
D03*
X291339Y-81102D02*
D03*
Y-92126D02*
D03*
X195669Y-78347D02*
D03*
Y-89370D02*
D03*
X52362Y-38976D02*
D03*
Y-50000D02*
D03*
D14*
X24311Y-107283D02*
D03*
X35335D02*
D03*
X232677Y-42520D02*
D03*
X243701D02*
D03*
X329134Y-106299D02*
D03*
X340158D02*
D03*
Y-94488D02*
D03*
X329134D02*
D03*
X340158Y-82677D02*
D03*
X329134D02*
D03*
X340158Y-70866D02*
D03*
X329134D02*
D03*
X340158Y-59055D02*
D03*
X329134D02*
D03*
X128740Y-40157D02*
D03*
X139764D02*
D03*
X221260Y-111024D02*
D03*
X232283D02*
D03*
X225984Y-98425D02*
D03*
X214961D02*
D03*
X245276Y-141732D02*
D03*
X234252D02*
D03*
X340158Y-116535D02*
D03*
X329134D02*
D03*
X298819Y-125591D02*
D03*
X287795D02*
D03*
D15*
X230512Y-120079D02*
D03*
X223031D02*
D03*
X226772Y-129528D02*
D03*
D16*
X77165Y-118405D02*
D03*
Y-129626D02*
D03*
X35433Y-89075D02*
D03*
Y-77854D02*
D03*
D17*
X89370Y-90256D02*
D03*
X55709Y-90059D02*
D03*
D18*
X80315Y-67224D02*
D03*
X89370D02*
D03*
X98425D02*
D03*
X46654Y-67028D02*
D03*
X55709D02*
D03*
X64764D02*
D03*
D19*
X16929Y-48819D02*
D03*
Y-39961D02*
D03*
D20*
X30315Y-60335D02*
D03*
Y-44390D02*
D03*
D21*
X93799Y-50394D02*
D03*
X84941D02*
D03*
D22*
X6398Y-47638D02*
X9646Y-44390D01*
X30315D01*
X64961Y-131102D02*
Y-122047D01*
Y-131102D02*
X70866Y-137007D01*
Y-141733D02*
Y-137007D01*
X106693Y-31890D02*
X234646D01*
X98819Y-39764D02*
X106693Y-31890D01*
X234646D02*
X238189Y-35433D01*
X246063Y-56693D02*
Y-51181D01*
Y-56693D02*
X249606Y-60236D01*
X277953D01*
X281496Y-56693D01*
Y-51181D01*
X150866Y-141733D02*
X160866D01*
X140866D02*
X150866D01*
X130866D02*
X140866D01*
X130866D02*
Y-136870D01*
X126969Y-132973D02*
X130866Y-136870D01*
X111024Y-132973D02*
X126969D01*
X110866Y-141733D02*
Y-133130D01*
Y-125197D01*
X104035D02*
X110866D01*
X90866Y-141733D02*
Y-125197D01*
X80866Y-141733D02*
Y-133326D01*
X77165Y-129626D02*
X80866Y-133326D01*
X77165Y-118405D02*
X86614D01*
X374921Y-34213D02*
Y-19685D01*
X379921Y-144764D02*
X386733D01*
X374921Y-34213D02*
X381890Y-41181D01*
X386733Y-144764D02*
X393701Y-137795D01*
Y-100394D01*
X403543Y-90551D01*
Y-70866D01*
Y-16535D01*
X371141Y-144764D02*
X379921D01*
X64961Y-122047D02*
X68602Y-118405D01*
X29528Y-122047D02*
X64961D01*
X259842Y-159449D02*
X267717Y-151575D01*
X9843Y-147638D02*
Y-122047D01*
X104035Y-121358D02*
X106595Y-118799D01*
X98721Y-59153D02*
X107283D01*
X98425Y-67224D02*
Y-59449D01*
X106791Y-94488D02*
X116437D01*
X107382Y-59055D02*
Y-48228D01*
X55709Y-100197D02*
Y-90059D01*
X48622Y-107283D02*
X55709Y-100197D01*
Y-90059D02*
Y-67028D01*
X64764Y-77756D02*
Y-67028D01*
Y-77756D02*
X69587Y-82579D01*
Y-101083D02*
Y-82579D01*
Y-101083D02*
X77165Y-108661D01*
Y-118405D02*
Y-108661D01*
X98721Y-114173D02*
X104035Y-119488D01*
X86614Y-114173D02*
X98721D01*
X104035Y-125197D02*
Y-121358D01*
Y-119488D01*
X68602Y-118405D02*
X77165D01*
X76378Y-13780D02*
X153779D01*
Y-47480D02*
Y-43780D01*
Y-47480D02*
X157087Y-50787D01*
X257087Y-26772D02*
X273622Y-43307D01*
Y-51181D02*
Y-43307D01*
X157087Y-50787D02*
X180315D01*
X238189Y-51181D02*
Y-35433D01*
X214173Y-133465D02*
Y-130315D01*
X210866Y-136772D02*
X214173Y-133465D01*
X210866Y-141733D02*
Y-136772D01*
X226772Y-135827D02*
Y-129528D01*
X220866Y-141733D02*
X226772Y-135827D01*
X267717Y-151575D02*
Y-147244D01*
X21654Y-159449D02*
X259842D01*
X9843Y-147638D02*
X21654Y-159449D01*
X267717Y-136221D02*
Y-132677D01*
X245276Y-125197D02*
X260236D01*
X216142Y-111024D02*
X221260D01*
X214173Y-112992D02*
X216142Y-111024D01*
X214173Y-119291D02*
Y-112992D01*
X232283Y-112205D02*
X245276Y-125197D01*
X84941Y-53839D02*
Y-50394D01*
Y-53839D02*
X89370Y-58268D01*
Y-67224D02*
Y-58268D01*
X35335Y-107283D02*
X48622D01*
X13976D02*
X24311D01*
X9843Y-111417D02*
X13976Y-107283D01*
X9843Y-122047D02*
Y-111417D01*
X29921Y-89075D02*
X35433D01*
X195669Y-78347D02*
X205512D01*
X207874Y-80709D01*
Y-98425D02*
Y-91732D01*
Y-98425D02*
X214961D01*
X290551Y-115354D02*
X293307Y-118110D01*
Y-141732D02*
Y-118110D01*
X246063Y-141732D02*
X293307D01*
X316929D01*
X260630Y-125591D02*
X287795D01*
X260630D02*
X267717Y-132677D01*
X298819Y-125591D02*
X311024D01*
X358425Y-157480D02*
X371141Y-144764D01*
X332677Y-157480D02*
X358425D01*
X316929Y-141732D02*
X332677Y-157480D01*
X329134Y-132677D02*
Y-116535D01*
X320079Y-141732D02*
X329134Y-132677D01*
X316929Y-141732D02*
X320079D01*
X55709Y-67028D02*
Y-61614D01*
X59842Y-57480D01*
X75984D01*
X80315Y-61811D01*
Y-67224D02*
Y-61811D01*
X85433Y-26772D02*
X257087D01*
X75984Y-36220D02*
X85433Y-26772D01*
X75984Y-57480D02*
Y-36220D01*
X69784Y-32579D02*
X81496Y-20866D01*
X69784Y-40256D02*
Y-32579D01*
X65650Y-44390D02*
X69784Y-40256D01*
X30315Y-44390D02*
X65650D01*
X46654Y-58366D02*
X52362Y-52658D01*
Y-50000D01*
X35433Y-77854D02*
Y-71260D01*
X39862Y-66831D01*
X46457D01*
X46654Y-67028D02*
Y-58366D01*
X30315Y-66142D02*
Y-60335D01*
Y-66142D02*
X35433Y-71260D01*
X158957Y-5807D02*
X163779Y-10630D01*
X59547Y-5807D02*
X158957D01*
X57874Y-4134D02*
X59547Y-5807D01*
X38386Y-4134D02*
X57874D01*
X29015Y-13504D02*
X38386Y-4134D01*
X17323Y-13504D02*
X29015D01*
X59055Y-31102D02*
X76378Y-13780D01*
X41634Y-31102D02*
X59055D01*
X34035Y-23504D02*
X41634Y-31102D01*
X17323Y-23504D02*
X34035D01*
X93799Y-50394D02*
Y-39862D01*
X87008Y-39764D02*
X93701D01*
X98819D01*
X243701Y-42520D02*
X246654D01*
Y-51181D02*
Y-42520D01*
X188583D02*
X232677D01*
X180315Y-50787D02*
X188583Y-42520D01*
X238189Y-62303D02*
Y-51181D01*
X311024Y-125591D02*
X318110Y-118504D01*
Y-109055D01*
X320866Y-106299D01*
X329134D01*
X340158Y-116535D02*
Y-106299D01*
X106595Y-118799D02*
Y-111122D01*
Y-100098D02*
Y-94685D01*
Y-59842D01*
X89370Y-90256D02*
Y-67224D01*
X225984Y-98425D02*
X231496D01*
X248425Y-115354D01*
X290551D01*
X6398Y-77264D02*
Y-47638D01*
Y-77264D02*
X11594Y-82460D01*
X19488D01*
Y-89567D02*
Y-82460D01*
Y-89567D02*
X30020D01*
Y-121555D02*
Y-89567D01*
Y-89173D01*
X19488Y-72461D02*
Y-64370D01*
X16929Y-61811D02*
X19488Y-64370D01*
X16929Y-61811D02*
Y-49114D01*
X40453Y-38976D02*
X52362D01*
X37008Y-35531D02*
X40453Y-38976D01*
X17323Y-35531D02*
X37008D01*
X16929Y-35925D02*
X17323Y-35531D01*
X16929Y-39665D02*
Y-35925D01*
X395669Y-89764D02*
Y-76378D01*
X385039Y-100394D02*
X395669Y-89764D01*
X238189Y-62303D02*
X243209Y-67323D01*
X381299Y-10039D02*
X384921Y-13661D01*
X367224Y-10039D02*
X381299D01*
X362008Y-15256D02*
X367224Y-10039D01*
X362008Y-28543D02*
Y-15256D01*
X356299Y-34252D02*
X362008Y-28543D01*
X306693Y-34252D02*
X356299D01*
X288976Y-51968D02*
X306693Y-34252D01*
X288976Y-62205D02*
Y-51968D01*
X283858Y-67323D02*
X288976Y-62205D01*
X243209Y-67323D02*
X283858D01*
X384921Y-19685D02*
Y-13661D01*
Y-29803D02*
Y-19685D01*
Y-29803D02*
X395669Y-40551D01*
Y-65354D02*
Y-40551D01*
X391142Y-4134D02*
X403543Y-16535D01*
X330315Y-4134D02*
X391142D01*
X313583Y-20866D02*
X330315Y-4134D01*
X281496Y-51181D02*
Y-21161D01*
X81496Y-20866D02*
X281201D01*
X313583D01*
D23*
X381890Y-71181D02*
X403228D01*
D24*
X127657Y-101476D02*
Y-94488D01*
X123228Y-105905D02*
X127657Y-101476D01*
X93996Y-74803D02*
Y-50590D01*
X100689Y-105905D02*
X123228D01*
X99508Y-104724D02*
X100689Y-105905D01*
X99508Y-104724D02*
Y-80315D01*
X93996Y-74803D02*
X99508Y-80315D01*
D25*
X273622Y-51181D02*
D03*
X238189D02*
D03*
D26*
X281496D02*
D03*
X246063D02*
D03*
D27*
X86614Y-114173D02*
D03*
X381890Y-41181D02*
D03*
X374016Y-90393D02*
D03*
X379921Y-134764D02*
D03*
X19488Y-72461D02*
D03*
X17323Y-23504D02*
D03*
D28*
X86614Y-39370D02*
D03*
X384921Y-19685D02*
D03*
X381890Y-71181D02*
D03*
Y-61181D02*
D03*
X381890Y-51181D02*
D03*
X19685Y-141732D02*
D03*
X29528Y-122047D02*
D03*
X139921Y-59055D02*
D03*
X80866Y-141733D02*
D03*
X90866D02*
D03*
X100866D02*
D03*
X110866D02*
D03*
X120866D02*
D03*
X130866D02*
D03*
X140866D02*
D03*
X150866D02*
D03*
X160866D02*
D03*
X170866D02*
D03*
X180866D02*
D03*
X190866D02*
D03*
X200866D02*
D03*
X210866D02*
D03*
X220866D02*
D03*
X374016Y-100394D02*
D03*
Y-110394D02*
D03*
X384015Y-110394D02*
D03*
Y-100394D02*
D03*
X384016Y-90394D02*
D03*
X379921Y-144764D02*
D03*
X153779Y-13780D02*
D03*
X163779D02*
D03*
X153779Y-43780D02*
D03*
X19488Y-82460D02*
D03*
X17323Y-13504D02*
D03*
D29*
X374921Y-19685D02*
D03*
X9843Y-122047D02*
D03*
X129921Y-59055D02*
D03*
X70866Y-141733D02*
D03*
X163779Y-43780D02*
D03*
D30*
X344488Y-139764D02*
D03*
X344094Y-18111D02*
D03*
X49213Y-17717D02*
D03*
Y-139370D02*
D03*
M02*
